<?xml version="1.0" encoding="utf-8"?>
<!-- Uploaded to: SVG Repo, www.svgrepo.com, Generator: SVG Repo Mixer Tools -->
<svg width="800px" height="800px" viewBox="0 -95.27 383.423 383.423" xmlns="http://www.w3.org/2000/svg"><defs><style>.a{fill:#ffffff;}.b{fill:#c6c6c6;}.c{fill:#211715;}</style></defs><path class="a" d="M147.34,165.087v-5.168h-55.1v30.506h55.1Z"/><rect class="a" x="280.877" y="2.425" width="100.142" height="187.998" rx="4.032"/><rect class="b" x="301.21" y="23.339" width="59.475" height="21.171"/><path class="a" d="M330.947,153.334a8.385,8.385,0,0,0-8.55,8.5,8.246,8.246,0,0,0,8.551,8.658c5.173,0,8.55-3.564,8.55-8.658A8.377,8.377,0,0,0,330.947,153.334Z"/><path class="c" d="M376.986.025h-89.06c-.9,0-1.8-.008-2.7,0a6.532,6.532,0,0,0-6.65,5.426,25.2,25.2,0,0,0-.1,3.788V173.2c0,4.358-.129,8.738,0,13.094a6.561,6.561,0,0,0,6.434,6.529c.526.019,1.056,0,1.582,0h82.623c2.533,0,5.067.026,7.6,0a6.562,6.562,0,0,0,6.689-6.085c.023-.356.014-.713.014-1.07V7.762c0-.4.011-.8,0-1.2A6.568,6.568,0,0,0,376.986.025c-3.088-.131-3.082,4.669,0,4.8,1.988.085,1.632,2.3,1.632,3.683V185.669a5.54,5.54,0,0,1-.014,1.07c-.257,1.184-1.33,1.285-2.3,1.285H286.218a8.056,8.056,0,0,1-1.673-.03c-1-.227-1.262-1.106-1.268-1.985-.011-1.612,0-3.225,0-4.837V9.205a14.446,14.446,0,0,1,.044-3.127c.454-1.912,4.23-1.253,5.641-1.253h88.024C380.075,4.825,380.08.025,376.986.025Z"/><path class="c" d="M360.685,20.939H301.21a2.435,2.435,0,0,0-2.4,2.4V44.51a2.435,2.435,0,0,0,2.4,2.4h59.475a2.434,2.434,0,0,0,2.4-2.4V23.339c0-3.088-4.8-3.093-4.8,0V44.51l2.4-2.4H301.21l2.4,2.4V23.339l-2.4,2.4h59.475C363.774,25.739,363.779,20.939,360.685,20.939Z"/><path class="c" d="M364.728,98.746H297.167c-3.088,0-3.093,4.8,0,4.8h67.561c3.089,0,3.094-4.8,0-4.8Z"/><path class="c" d="M364.728,116.032H297.167c-3.088,0-3.093,4.8,0,4.8h67.561c3.089,0,3.094-4.8,0-4.8Z"/><path class="c" d="M364.728,133.318H297.167c-3.088,0-3.093,4.8,0,4.8h67.561c3.089,0,3.094-4.8,0-4.8Z"/><path class="c" d="M330.947,150.934a10.952,10.952,0,0,0-10.46,7.617,11.27,11.27,0,0,0,3.55,12.03,11.711,11.711,0,0,0,12.667.851c4.027-2.3,5.691-7.05,5.021-11.485a10.877,10.877,0,0,0-10.778-9.013,2.4,2.4,0,1,0,0,4.8c.249,0,.5.02.744.029.731.027-.384-.113.316.039a11.191,11.191,0,0,1,1.126.288q.216.071.429.153c-.461-.18.2.107.243.127a7.683,7.683,0,0,1,1.117.7c-.4-.306.147.147.183.18.106.1.21.2.31.3.151.155.293.317.433.482-.285-.334.017.019.08.116.219.335.406.679.6,1.026.04.07.191.419.026.022a7.889,7.889,0,0,1,.285.83,8.046,8.046,0,0,1,.239,1.085c-.068-.464,0,.031,0,.149,0,.191.018.381.018.572a11.32,11.32,0,0,1-.061,1.165c.053-.526-.037.191-.049.25-.05.249-.109.5-.179.741-.049.172-.1.341-.161.51-.027.075-.313.686-.074.2a9.642,9.642,0,0,1-.489.9q-.136.213-.284.418c-.223.309.379-.382-.063.063-.285.287-.554.572-.861.837.379-.327-.347.226-.507.32-.177.1-.362.192-.543.291-.57.314.274-.09-.1.049a9.292,9.292,0,0,1-1.132.345c-.145.034-.29.058-.435.09-.284.046-.295.05-.036.013-.154.018-.308.031-.463.041a10.412,10.412,0,0,1-1.185.013c-.23-.01-.46-.027-.689-.055.112.014.421.091-.028-.015-.391-.093-.779-.174-1.161-.3-.169-.056-.337-.115-.5-.183.482.2-.188-.112-.279-.162a7.346,7.346,0,0,1-.955-.613c.391.3-.33-.327-.435-.436s-.231-.251-.344-.379c-.258-.293.288.46-.065-.085-.23-.353-.433-.711-.637-1.078-.321-.578.117.423-.1-.212-.046-.138-.1-.273-.141-.412a9.566,9.566,0,0,1-.308-1.306c.018.11.028.432,0-.052-.015-.238-.035-.475-.04-.714,0-.195,0-.39,0-.585,0-.1.085-.884.01-.371a8.3,8.3,0,0,1,.3-1.292c.066-.208.137-.416.221-.618-.161.388.064-.1.123-.215a7.945,7.945,0,0,1,.69-1.1c-.309.406.141-.141.176-.179q.219-.238.458-.459c.035-.033.581-.49.182-.182a6.483,6.483,0,0,1,.542-.371q.281-.177.575-.331c.093-.048.626-.28.244-.129a8.275,8.275,0,0,1,1.325-.4c.03-.007.79-.117.307-.064.329-.036.659-.047.989-.052a2.4,2.4,0,0,0,0-4.8Z"/><path class="b" d="M237.172,138.249V155.82a4.107,4.107,0,0,1-4.1,4.1H6.508a4.107,4.107,0,0,1-4.1-4.1V138.249Z"/><path class="a" d="M237.172,6.526V138.249H2.4V6.526a4.1,4.1,0,0,1,4.1-4.1H233.069A4.1,4.1,0,0,1,237.172,6.526Z"/><path class="c" d="M75.071,192.824h78.378c3.624,0,7.281.145,10.9,0,.051,0,.1,0,.155,0,3.088,0,3.093-4.8,0-4.8H86.128c-3.623,0-7.281-.146-10.9,0-.051,0-.1,0-.154,0-3.089,0-3.094,4.8,0,4.8Z"/><path class="c" d="M94.638,189.8V159.978c0-3.088-4.8-3.093-4.8,0V189.8c0,3.089,4.8,3.094,4.8,0Z"/><path class="c" d="M144.94,159.978V189.8c0,3.088,4.8,3.093,4.8,0V159.978c0-3.088-4.8-3.093-4.8,0Z"/><path class="c" d="M233.067.025H11.531c-1.662,0-3.336-.057-5,0A6.65,6.65,0,0,0,.006,6.807c-.009,1,0,2,0,3V145.888c0,3.161-.014,6.322,0,9.483a6.681,6.681,0,0,0,6.506,6.948c.406.014.814,0,1.22,0H231.7c.452,0,.906.015,1.357,0a6.658,6.658,0,0,0,6.517-6.833c.026-3.024,0-6.05,0-9.074V10.094c0-1.041,0-2.081,0-3.121a6.685,6.685,0,0,0-6.5-6.948c-3.089-.124-3.083,4.676,0,4.8,1.621.066,1.7,1.435,1.7,2.658V147.361c0,2.758.036,5.518,0,8.276-.029,2.262-2.354,1.882-3.936,1.882H7.554a7.083,7.083,0,0,1-1.392-.033c-1.427-.309-1.356-1.6-1.356-2.716V9.23c0-1.708-.482-4.379,1.95-4.4,2.077-.022,4.156,0,6.234,0H233.067C236.156,4.825,236.161.025,233.067.025Z"/><path class="c" d="M2.4,140.648h234.77c3.089,0,3.094-4.8,0-4.8H2.4c-3.089,0-3.094,4.8,0,4.8Z"/></svg>